<?xml version="1.0" standalone="no"?><!DOCTYPE svg PUBLIC "-//W3C//DTD SVG 1.1//EN" "http://www.w3.org/Graphics/SVG/1.1/DTD/svg11.dtd"><svg t="1745935075704" class="icon" viewBox="0 0 1024 1024" version="1.1" xmlns="http://www.w3.org/2000/svg" p-id="1590" xmlns:xlink="http://www.w3.org/1999/xlink" width="200" height="200"><path d="M800.3808136 141.21142578C845.7097168 141.21142578 882.78857422 178.2902832 882.78857422 223.6191864v576.7616272C882.78857422 845.7097168 845.7097168 882.78857422 800.3808136 882.78857422H223.6191864C178.2902832 882.78857422 141.21142578 845.7097168 141.21142578 800.3808136V223.6191864C141.21142578 178.2902832 178.2902832 141.21142578 223.6191864 141.21142578h576.7616272zM422.73265076 595.4274292v-17.89054871h-41.62101746v14.27536011a36.33728028 36.33728028 0 0 1-2.45647431 14.27536011 23.63777161 23.63777161 0 0 1-6.30340575 8.94527435 24.10125732 24.10125732 0 0 1-8.57448579 4.68120575 30.2192688 30.2192688 0 0 1-8.80622863 1.43680573c-9.50145722 0-16.08295441-2.82726289-19.74449158-8.57448578a38.46931458 38.46931458 0 0 1-5.51548005-21.18129731V442.94062805c0-9.82589722 1.71489715-17.8905487 5.09834291-24.28665161 3.42979432-6.39610291 10.28938294-9.59415436 20.62511443-9.59415436 7.87925721 0 14.1363144 3.01265717 18.724823 8.99162293 4.63485718 5.97896576 6.95228576 13.02394867 6.95228577 21.1812973v13.90457154h41.62101746v-16.31469727a75.08468628 75.08468628 0 0 0-5.0983429-27.94818879 63.40484619 63.40484619 0 0 0-35.27126313-36.2909317 68.22509766 68.22509766 0 0 0-26.55773162-5.09834289c-10.05764008 0-19.23465729 1.66854859-27.53105163 5.09834289a62.38517761 62.38517761 0 0 0-35.27126313 35.27126313c-3.24440003 8.15734864-4.86660004 16.96357727-4.86660004 26.51138305v159.90257264c0 13.30204011 2.08568573 24.28665161 6.30340577 33.0001831 4.17137146 8.71353149 9.59415436 15.71216584 16.12930298 20.99590301 6.48880005 5.33008576 13.85822297 9.0379715 22.01557158 11.21635437 8.15734864 2.17838288 16.17565156 3.24440003 24.05490876 3.24440003 9.26971435 0 17.8905487-1.8075943 25.90885163-5.46913147a67.3444748 67.3444748 0 0 0 40.18421173-61.78264619z m168.43070984-141.91932678v-20.39337159c0-8.15734864-1.62220001-16.08295441-4.91294862-23.82316589A67.06638337 67.06638337 0 0 0 572.25314331 388.24931336a69.05937195 69.05937195 0 0 0-50.38089753-20.81050873c-11.95793152 0-22.43270874 2.1320343-31.42433166 6.34975433-8.94527436 4.17137146-16.36104584 9.87224579-22.24731446 16.9172287a72.30377198 72.30377198 0 0 0-13.20934294 25.30632018 105.48934937 105.48934937 0 0 0-4.49581147 31.00719453c0 18.21498871 3.05900573 33.37097168 9.17701721 45.42160034 6.11801148 12.14332581 18.16864013 21.87652588 36.10553741 29.19960022l29.75578309 12.23602295c5.19104004 2.17838288 9.31606293 4.17137146 12.46776581 6.11801147 3.10535431 1.90029144 5.56182862 4.35676575 7.32307433 7.32307434a29.66308594 29.66308594 0 0 1 3.47614289 11.86523438c0.55618286 4.86660004 0.78792573 11.12365723 0.78792573 18.724823 0 6.53514862-0.23174287 12.51411438-0.78792573 17.98324585a35.22491455 35.22491455 0 0 1-3.89328003 13.6264801 21.04225159 21.04225159 0 0 1-8.94527435 8.57448579 36.52267456 36.52267456 0 0 1-16.54644013 3.05900573c-10.61382294 0-18.12229157-3.05900573-22.61810302-9.17701721a33.97350312 33.97350312 0 0 1-6.72054292-20.57876587V578.27845764h-41.62101744v15.52677155a67.66891479 67.66891479 0 0 0 42.82608032 63.59024047c8.71353149 3.56884003 18.07594299 5.33008576 28.13358306 5.33008576 13.34838867 0 24.61109162-2.17838288 33.8344574-6.53514863 9.26971435-4.35676575 16.68548584-10.24303437 22.24731445-17.75150298 5.56182862-7.46212006 9.59415436-16.45374298 12.05062867-26.88217163 2.45647431-10.47477722 3.66153717-21.83017732 3.66153717-34.06620026 0-10.66017151-0.55618286-20.06893159-1.62220001-28.36532593a70.77426911 70.77426911 0 0 0-6.34975434-22.01557159 50.51994323 50.51994323 0 0 0-13.25569153-16.73183441 78.88526917 78.88526917 0 0 0-22.43270873-12.42141724l-31.79512024-12.65316009a65.58322907 65.58322907 0 0 1-12.83855439-6.53514863 23.40602875 23.40602875 0 0 1-7.13768006-7.5548172 25.67710877 25.67710877 0 0 1-3.05900573-10.19668579 144.14405823 144.14405823 0 0 1-0.60253143-14.46075439c0-4.91294861 0.37078857-9.59415436 1.20506287-14.08996582a34.94682312 34.94682312 0 0 1 4.2640686-11.81888581 24.10125732 24.10125732 0 0 1 8.57448577-8.34274292c3.70788575-2.17838288 8.34274292-3.24440003 14.08996583-3.24440002 10.61382294 0 18.12229157 3.42979432 22.61810302 10.38208008 4.49581147 6.95228576 6.72054292 15.15598298 6.72054292 24.65744018v9.3624115h41.62101745z m165.60344696 0v-20.39337159c0-8.15734864-1.62220001-16.08295441-4.91294861-23.82316589a67.06638337 67.06638337 0 0 0-14.04361725-21.04225158 69.05937195 69.05937195 0 0 0-50.38089753-20.81050873c-11.95793152 0-22.43270874 2.1320343-31.42433167 6.34975433-8.94527436 4.17137146-16.36104584 9.87224579-22.24731445 16.9172287a72.30377198 72.30377198 0 0 0-13.20934295 25.30632018 105.48934937 105.48934937 0 0 0-4.49581146 31.00719453c0 18.21498871 3.05900573 33.37097168 9.17701721 45.42160034 6.11801148 12.14332581 18.12229157 21.87652588 36.10553741 29.19960022l29.75578309 12.23602295c5.14469147 2.17838288 9.26971435 4.17137146 12.42141724 6.11801147 3.15170288 1.90029144 5.56182862 4.35676575 7.36942291 7.32307434a29.66308594 29.66308594 0 0 1 3.47614288 11.86523438c0.5098343 4.86660004 0.78792573 11.12365723 0.78792572 18.724823 0 6.53514862-0.27809143 12.51411438-0.78792572 17.98324585a35.22491455 35.22491455 0 0 1-3.89328003 13.6264801 21.04225159 21.04225159 0 0 1-8.99162292 8.57448579 36.52267456 36.52267456 0 0 1-16.50009156 3.05900573c-10.61382294 0-18.16864013-3.05900573-22.61810302-9.17701721a33.97350312 33.97350312 0 0 1-6.76689148-20.57876587V578.27845764h-41.57466889v15.52677155a67.66891479 67.66891479 0 0 0 42.82608032 63.59024047c8.71353149 3.56884003 18.07594299 5.33008576 28.13358307 5.33008576 13.30204011 0 24.56474304-2.17838288 33.8344574-6.53514863 9.26971435-4.35676575 16.68548584-10.24303437 22.24731445-17.75150298 5.56182862-7.46212006 9.59415436-16.45374298 12.05062867-26.88217163 2.41012573-10.47477722 3.66153717-21.83017732 3.66153717-34.06620026 0-10.66017151-0.55618286-20.06893159-1.62220001-28.36532593a70.77426911 70.77426911 0 0 0-6.34975435-22.01557159 50.51994323 50.51994323 0 0 0-13.25569151-16.73183441 78.88526917 78.88526917 0 0 0-22.43270874-12.42141724l-31.79512024-12.65316009a65.58322907 65.58322907 0 0 1-12.83855439-6.53514863 23.40602875 23.40602875 0 0 1-7.13768006-7.5548172 25.67710877 25.67710877 0 0 1-3.05900573-10.19668579 144.14405823 144.14405823 0 0 1-0.64888-14.46075439c0-4.91294861 0.46348572-9.59415436 1.25141144-14.08996582a34.94682312 34.94682312 0 0 1 4.2640686-11.81888581 24.10125732 24.10125732 0 0 1 8.57448577-8.34274292c3.70788575-2.17838288 8.34274292-3.24440003 14.08996583-3.24440002 10.56747437 0 18.12229157 3.42979432 22.61810302 10.38208008 4.49581147 6.95228576 6.72054292 15.15598298 6.72054292 24.65744018v9.3624115h41.62101745z" fill="#1296db" p-id="1591"></path></svg>