<?xml version="1.0" standalone="no"?><!DOCTYPE svg PUBLIC "-//W3C//DTD SVG 1.1//EN" "http://www.w3.org/Graphics/SVG/1.1/DTD/svg11.dtd"><svg t="1745933974923" class="icon" viewBox="0 0 1024 1024" version="1.1" xmlns="http://www.w3.org/2000/svg" p-id="2935" xmlns:xlink="http://www.w3.org/1999/xlink" width="200" height="200"><path d="M322.84774971 620.74999971c2.09999971 0 4.12499971 0.37500029 5.92500058 1.125a6.71249971 6.71249971 0 1 0 9.225 9 16.425 16.425 0 1 1-15.15000058-10.125z m0 44.4375a28.08749971 28.08749971 0 1 1 0.07500058-56.1375 28.08749971 28.08749971 0 0 1-0.07500058 56.1375z m504.15000029-183.78749971c-79.65 211.05-259.49999971 305.06249971-471.6 305.06249971-100.19999971 0-180.1125-34.49999971-231.26249971-91.94999942l0.37499942-0.225c14.7375 0.74999971 27.93750029 0.97499971 41.2875 0.97499971 12.2625 0 24.22500029-0.1125 35.28750058-0.74999971l3.15-0.225s3.41250029-0.225 1.72499942-0.26250029a320.43750029 320.43750029 0 0 0 70.38750058-11.475c3.7125-1.05000029 7.3125-2.17500029 10.72499942-3.375a7.38749971 7.38749971 0 0 0-4.79999971-13.91249971c-25.875 8.96249971-60.00000029 13.87500029-101.8125 14.81249971a812.54999971 812.54999971 0 0 1-69.75-1.6875 236.25 236.25 0 0 1-14.47499971-21.75000029l-7.01250029-12.74999942C68.14774971 602.41249971 58.92274971 554.00000029 63.79775 501.35000029h613.61250029c50.4 0 99.60000029-18.82500029 122.99999942-39.56250058-41.88750029-34.04999971-37.72500029-114.90000029-11.06249942-145.72499942 23.175 18.60000029 60.48749971 57.75000029 54.07499971 107.6625 29.1375-14.625 79.7625-21.86250029 119.09999971 0.82499942-24.71249971 48.22499971-79.01250029 62.62499971-135.52499971 56.85000029z m-679.87500029 5.0625h82.95000029V403.47500029H147.08525029v82.98749971z m95.70000058 0h82.98749971V403.47500029H242.82275029v82.98749971z m0-95.7375h82.98749971V307.73750029H242.82275029v82.98749971z m95.7375 95.7375h82.98749971V403.47500029H338.56025029v82.98749971z m0-95.7375h82.98749971V307.73750029H338.56025029v82.98749971z m95.7375 95.7375h82.98749971V403.47500029H434.29775029v82.98749971z m0-95.7375h82.98749971V307.73750029H434.29775029v82.98749971z m0-95.7375h82.98749971V212.00000029H434.29775029v82.98749971z m95.7375 191.475h82.98749971V403.47500029h-82.98749971v82.98749971z" fill="#0DB7ED" p-id="2936"></path></svg>