<?xml version="1.0" standalone="no"?><!DOCTYPE svg PUBLIC "-//W3C//DTD SVG 1.1//EN" "http://www.w3.org/Graphics/SVG/1.1/DTD/svg11.dtd"><svg t="1745933811661" class="icon" viewBox="0 0 1024 1024" version="1.1" xmlns="http://www.w3.org/2000/svg" p-id="1435" xmlns:xlink="http://www.w3.org/1999/xlink" width="200" height="200"><path d="M601.216 85.333333a42.666667 42.666667 0 0 1 30.485333 12.821334l209.450667 213.973333a42.666667 42.666667 0 0 1 12.181333 29.866667V853.333333a85.333333 85.333333 0 0 1-85.333333 85.333334H256a85.333333 85.333333 0 0 1-85.333333-85.333334V170.666667a85.333333 85.333333 0 0 1 85.333333-85.333334h345.216z" fill="#DCDFE6" p-id="1436"></path><path d="M330.666667 554.666667h362.666666a32 32 0 0 1 0 64h-362.666666a32 32 0 0 1 0-64zM330.666667 704h234.666666a32 32 0 0 1 0 64h-234.666666a32 32 0 0 1 0-64z" fill="#323847" p-id="1437"></path><path d="M640.064 106.816l204.074667 208.938667c9.194667 11.733333 9.194667 20.714667 9.194666 26.24H630.165333a32 32 0 0 1-32-32V85.333333c14.336 0 27.925333 4.757333 41.898667 21.482667z" fill="#323847" p-id="1438"></path></svg>