<?xml version="1.0" standalone="no"?><!DOCTYPE svg PUBLIC "-//W3C//DTD SVG 1.1//EN" "http://www.w3.org/Graphics/SVG/1.1/DTD/svg11.dtd"><svg t="1745932528847" class="icon" viewBox="0 0 1024 1024" version="1.1" xmlns="http://www.w3.org/2000/svg" p-id="1401" xmlns:xlink="http://www.w3.org/1999/xlink" width="200" height="200"><path d="M780.653714 262.290286H447.634286L364.470857 179.053714H156.379429C110.592 179.053714 73.142857 216.502857 73.142857 262.290286v499.419428c0 45.787429 37.449143 83.236571 83.236572 83.236572h645.12c35.328 0 62.390857-27.062857 62.390857-62.464V345.526857c0-45.787429-37.449143-83.236571-83.236572-83.236571z" fill="#FFA000" p-id="1402"></path><path d="M868.059429 387.145143H308.297143c-39.497143 0-74.898286 29.110857-81.188572 68.681143l-70.729142 389.12h659.602285c39.497143 0 74.971429-29.110857 81.188572-68.681143l52.004571-291.328c10.386286-49.956571-29.110857-97.792-81.188571-97.792z" fill="#FFCA28" p-id="1403"></path></svg>