<?xml version="1.0" standalone="no"?><!DOCTYPE svg PUBLIC "-//W3C//DTD SVG 1.1//EN" "http://www.w3.org/Graphics/SVG/1.1/DTD/svg11.dtd"><svg t="1745933947805" class="icon" viewBox="0 0 1024 1024" version="1.1" xmlns="http://www.w3.org/2000/svg" p-id="1739" xmlns:xlink="http://www.w3.org/1999/xlink" width="200" height="200"><path d="M82.72 557.216a63.968 63.968 0 0 1 0-90.432L466.784 82.72c24.96-24.96 65.472-24.96 90.432 0l384.064 384.064c24.96 24.96 24.96 65.472 0 90.432L557.216 941.28c-24.96 24.96-65.472 24.96-90.432 0L82.72 557.216z" fill="#EE513B" p-id="1740"></path><path d="M388.768 161.984l-38.88 38.88 100.448 100.448A68.032 68.032 0 0 0 488 393.6v245.728a68.032 68.032 0 1 0 54.976 3.104v-248.48l96 96a68 68 0 1 0 41.056-36.704l-103.072-103.136a68 68 0 0 0-85.12-85.12l-103.072-103.04z" fill="#FFFFFF" p-id="1741"></path></svg>