<?xml version="1.0" standalone="no"?><!DOCTYPE svg PUBLIC "-//W3C//DTD SVG 1.1//EN" "http://www.w3.org/Graphics/SVG/1.1/DTD/svg11.dtd"><svg t="1745933971872" class="icon" viewBox="0 0 1024 1024" version="1.1" xmlns="http://www.w3.org/2000/svg" p-id="2783" xmlns:xlink="http://www.w3.org/1999/xlink" width="200" height="200"><path d="M714.52879385 62H159.49000654v900h705.01998692V211.98119961z" fill="#E8E8E8" p-id="2784"></path><path d="M675.99824521 538.33910293c0 32.21664434-26.35988203 58.5735583-58.57355829 58.5735583h-210.84937384c-32.21664434 0-58.5735583-26.35988203-58.57355829-58.5735583v-210.84937383c0-32.21664434 26.35988203-58.5735583 58.57355829-58.57355829h210.84937383c32.21664434 0 58.5735583 26.35988203 58.5735583 58.5735583v210.84937382z" fill="#004A94" p-id="2785"></path><path d="M560.77765596 375.25217364V344.21994247h-97.56421699v31.03223117h33.26747696v115.31854774h-33.26747696v31.03223116h97.56421699v-31.03223116h-33.26747783v-115.31854775z" fill="#FFFFFF" p-id="2786"></path><path d="M346.22068115 874.97379863v-142.42351289h38.67600323v142.42351289H346.22068115zM479.10061074 762.06860441c-9.16065263 0-16.30275644 3.75212724-21.43521475 11.25044558s-7.69423623 17.84338417-7.69423622 31.02629327c0 27.40774658 10.42521503 41.11310479 31.26970722 41.11310479a64.02957891 64.02957891 0 0 0 18.31536914-2.63301943 182.46203701 182.46203701 0 0 0 17.82557314-6.33171534v32.53723769c-11.88272636 5.26010273-25.32685957 7.89015411-40.32943242 7.89015411-21.49755293 0-37.97841621-6.23375596-49.4366537-18.70423594-11.46417364-12.47047998-17.19626133-30.49197187-17.19626045-54.06744375 0-14.74134873 2.77847403-27.69865577 8.32948505-38.87192109 5.55101104-11.16732832 13.54209258-19.7580375 23.96433868-25.76619141 10.42521503-6.00518496 22.68196612-9.00926192 36.77619199-9.00926104 15.39440859 0 30.1031042 3.34544941 44.12905488 10.03337842l-11.78773505 30.296054a132.77603319 132.77603319 0 0 0-15.78030821-6.23375595c-5.26307081-1.68608231-10.91204121-2.52912393-16.9498793-2.52912391zM678.41456768 803.56760791c0 23.9613706-5.87754141 42.17878037-17.63262422 54.64926123s-28.96618623 18.70423594-51.63330938 18.70423594c-22.34059365 0-39.47154873-6.26640908-51.38989717-18.80219531-11.91834756-12.53281817-17.87306924-30.78288018-17.87306836-54.74721973 0-23.70311455 5.92503662-41.80772285 17.77807794-54.30788789 11.85007324-12.5031331 29.07898769-18.7547001 51.67783651-18.7547001 22.66712403 0 39.84557431 6.20407177 51.53535177 18.60627745 11.69274551 12.40517461 17.53763378 30.62258438 17.53763291 54.65222841z m-98.00057989 0c0 27.53242207 9.57920537 41.30308565 28.73761435 41.30308652 9.74247012 0 16.96769033-3.34544941 21.67565978-10.03634735 4.70797031-6.68496094 7.06492354-17.11017597 7.06492353-31.26673917 0-14.2248375-2.38960635-24.72723193-7.15991397-31.51608838-4.77327568-6.78292031-11.90350547-10.18180107-21.38475146-10.18180195-19.28902237 0.00296807-28.9335331 13.90127607-28.93353223 41.69789033z" fill="#A4A9AD" p-id="2787"></path><path d="M737.73914521 136.99208427H159.49000654V62h555.03878731z" fill="#004A94" p-id="2788"></path><path d="M714.52879385 211.98119961h149.98119961L714.52879385 62z" fill="#D1D3D3" p-id="2789"></path></svg>