<?xml version="1.0" standalone="no"?><!DOCTYPE svg PUBLIC "-//W3C//DTD SVG 1.1//EN" "http://www.w3.org/Graphics/SVG/1.1/DTD/svg11.dtd"><svg t="1745933965522" class="icon" viewBox="0 0 1024 1024" version="1.1" xmlns="http://www.w3.org/2000/svg" p-id="2485" xmlns:xlink="http://www.w3.org/1999/xlink" width="200" height="200"><path d="M513.31835938 291.33072917C687.02539063 156.51529948 597.87792969 68.79166667 597.87792969 68.79166667c13.26269531 139.40332031-143.54296875 172.3359375-185.57226563 268.15429688-28.6875 65.36425781 19.64355469 122.60742188 100.95996094 194.72167968-7.19824219-15.97851563-18.29882813-31.48242187-29.53125-47.19726562-38.25878906-53.63085938-78.15234375-109.4765625 29.58398438-193.11328125z" fill="#E76F00" p-id="2486"></path><path d="M541.05664063 561.25162761s52.25976563-42.1875 10.86328124-89.015625c-140.2734375-158.99414063 153.45703125-231.10839844 153.45703126-231.10839844-179.34960938 86.40527344-152.58691406 137.66308594-107.49902344 199.96875 48.25195313 66.81445313-56.82128906 120.15527344-56.82128907 120.15527344z" fill="#E76F00" p-id="2487"></path><path d="M694.90917969 686.9967448c160.97167969-82.265625 86.53710938-161.31445313 34.59375-150.66210938-12.73535156 2.61035156-18.40429688 4.8515625-18.40429688 4.8515625s4.74609375-7.27734375 13.76367188-10.44140625c102.77929688-35.51660156 181.80175781 104.80957031-33.19628907 160.39160156 0 0 2.50488281-2.18847656 3.24316407-4.13964843zM359.94042969 582.87272136c-100.72265625-13.23632813 55.23925781-49.64941406 55.23925781-49.64941407s-60.56542969-4.0078125-135.05273438 31.37695313c-88.06640625 41.92382813 217.84570313 60.9609375 376.20703126 20.01269531 16.453125-11.07421875 39.20800781-20.64550781 39.20800781-20.64550781s-64.78417969 11.36425781-129.33105469 16.71679687c-78.96972656 6.51269531-163.74023438 7.77832031-206.27050781 2.18847657zM398.25195312 661.42057292c-56.16210938-5.72167969-19.37988281-32.484375-19.37988281-32.484375-145.3359375 47.43457031 80.86816406 101.22363281 283.94824219 42.8203125-21.59472656-7.48828125-35.33203125-21.17285156-35.33203125-21.17285156-99.24609375 18.79980469-156.59472656 18.19335938-229.23632812 10.81054687zM422.72070312 746.42838542c-56.109375-6.35449219-23.33496094-25.12792969-23.33496093-25.12792969-131.91503906 36.25488281 80.26171875 111.13769531 248.22070312 40.34179688-27.50097656-10.49414063-47.19726563-22.64941406-47.19726562-22.64941406-74.93554688 13.94824219-109.6875 15.02929688-177.68847657 7.40917968z" fill="#5382A1" p-id="2488"></path><path d="M774.06347656 789.64420573s24.2578125 19.64355469-26.73632812 34.85742188c-96.95214844 28.8984375-403.5234375 37.59960938-488.68945313 1.16015625-30.61230469-13.10449219 26.7890625-31.27148438 44.85058594-35.06835938 18.82617188-4.03417969 29.61035156-3.29589844 29.61035156-3.29589844-34.06640625-23.57226563-220.08691406 46.32714844-94.5 66.33984375 342.45703125 54.60644531 624.29589844-24.60058594 535.46484375-63.99316406z" fill="#5382A1" p-id="2489"></path><path d="M828.40625 832.59635417c-5.61621094 71.90332031-242.89453125 87.01171875-397.43261719 77.28222656-100.80175781-6.328125-120.99902344-22.22753906-121.2890625-22.46484375 96.47753906 15.63574219 259.13671875 18.48339844 391.02539063-5.90625C817.59570313 859.86002605 828.40625 832.59635417 828.40625 832.59635417z" fill="#5382A1" p-id="2490"></path></svg>