<?xml version="1.0" standalone="no"?><!DOCTYPE svg PUBLIC "-//W3C//DTD SVG 1.1//EN" "http://www.w3.org/Graphics/SVG/1.1/DTD/svg11.dtd"><svg t="1745933987269" class="icon" viewBox="0 0 1024 1024" version="1.1" xmlns="http://www.w3.org/2000/svg" p-id="3378" xmlns:xlink="http://www.w3.org/1999/xlink" width="200" height="200"><path d="M255.08 458.42A24.96 24.96 0 0 1 260 455a17.43 17.43 0 0 0-4.92 3.42zM344.36 579.59c1.8 12.63 7.2 124.92 82.98 187.5a463.95 463.95 0 0 0 46.47 4.86c8.4-18 39.36-16.62 59.55-12a199.44 199.44 0 0 1-65.28-53.34 133.98 133.98 0 0 1-44.16-79.68c40.44 56.1 73.86 105 147.39 129.78 55.65 18.66 120.63-8.55 163.38-38.58a187.74 187.74 0 0 0 40.95-50.4 427.26 427.26 0 0 0 64.35-258.63 287.01 287.01 0 0 0-15-103.38c-13.59-27.24-59.52-51.6-86.4-27a32.1 32.1 0 0 1-0.48-7.38c-4.29 4.02-6.9 6.96-6.9 6.96a36.27 36.27 0 0 1-3.66-14.61 46.53 46.53 0 0 1 45-45 260.22 260.22 0 0 0-44.37-46.89 314.7 314.7 0 0 0-181.41-6.66 241.8 241.8 0 0 0-179.25 162 422.55 422.55 0 0 0-11.64 67.89c-0.93 26.52 12.48 49.65 13.5 78.51-7.17 11.82-29.07 13.29-44.22 12.48a205.08 205.08 0 0 0-4.08-16.98 154.74 154.74 0 0 0-37.95-15 51.57 51.57 0 0 1 30.27 61.14c-11.19-6.39-13.86-34.5-27-35.31-18.78-1.14-15.36 36.48-15.27 58.5a68.73 68.73 0 0 1-5.7-66.39c-8.52-4.17-13.32 1.83-18 6.51-6.66 31.08-16.41 56.19 1.86 87.6a52.02 52.02 0 0 0 42.42 18c17.01-1.68 21.18-18.72 39.72-18.54a15.39 15.39 0 0 1 12.93 14.04z m193.47 58.41l-9-1.83s-9.42-33-4.89-39.18c2.4-3.21 15.6-8.04 34.08 0.84-0.12 0.03-22.02 3.69-20.19 40.17z m171.18 40.23a158.1 158.1 0 0 1-102.78-0.42 140.61 140.61 0 0 1-38.49-42.81c-4.65-6-27.81-21.24-0.36-21.27 21.51 54 95.4 47.76 157.71 46.29a33.33 33.33 0 0 1-16.08 18.24z m9-48a120.48 120.48 0 0 1 0-31.89 256.14 256.14 0 0 0 88.8-35.55 102.75 102.75 0 0 1-88.83 67.38z m82.68-242.19c-5.49 1.83-41.1 22.86-38.34-3.66a40.44 40.44 0 0 1 30.78-32.31 91.11 91.11 0 0 1 0-12h2.37a514.38 514.38 0 0 0 35.16 68.7c-9.51 22.14-72 41.7-70.98 1.98 13.5-6 36.81-1.2 48.78-8.73-2.82-7.71-6-15-9-22.68z m-155.61 142.5a21.57 21.57 0 0 1 1.38 3c2.73-15.21 7.77-33 16.44-30.39a20.52 20.52 0 0 1 15 19.14 207.24 207.24 0 0 0-28.44 22.14c1.95 9 4.32 18 15.69 20.04 33.18 5.67 71.79-20.31 95.67-29.37 14.79-24.96-1.29-34.14-14.61-50.19-27.3-33-63.9-73.68-62.58-123 11.04-8.01 12 12.21 13.56 15.9a450.18 450.18 0 0 0 76.29 104.58c6.42 7.02 17.01 13.77 18.18 18.42 3.39 13.53-8.82 29.73-7.41 38.7a197.61 197.61 0 0 1-133.98 42 39.66 39.66 0 0 1-5.25-51.06z m58.74 69.63A147.99 147.99 0 0 1 706.1 632c-54.33 2.7-118.56-10.74-132.81-48.87a308.55 308.55 0 0 0 130.5 16.95z m-127.68-259.44a208.62 208.62 0 0 0 29.31 54.87c6.84 6.66 20.1 14.76 13.53 33.27a42.18 42.18 0 0 1-19.26 16.02c-23.7 6.99-78.93 1.44-60.24-28.11 19.59 0.9 45.96 12.72 60.6-1.5a295.44 295.44 0 0 1-9.66-16.53c-15 9.48-56.22 9.9-56.22-14.37 0-25.56 40.17-31.02 40.17-31.02l0.3 0.72a33.3 33.3 0 0 1 1.44-13.44z m-96.72-87.84c35.85-24.45 54-10.5 63 5.64a17.04 17.04 0 0 1 8.22 24.84c-49.74-11.58-74.46 20.82-89.55 54.42-3.87 7.02-4.08 2.04-6.3-4.08a11.76 11.76 0 0 1-1.83-4.08 16.53 16.53 0 0 0-2.76-3.63c-7.2-7.41-10.95-45.72 29.22-73.11z" fill="#F0D6B7" p-id="3379"></path><path d="M220.49 910.4h262.59c-1.2-4.05-2.37-8.04-3.54-11.82a364.92 364.92 0 0 1-14.28-58.44 632.37 632.37 0 0 1-92.61-49.65 70.59 70.59 0 0 1-7.2-7.71l-157.98 70.59s5.67 22.62 13.02 57.03z" fill="#335061" p-id="3380"></path><path d="M314.99 242a63.75 63.75 0 0 1 14.01-2.64 114.51 114.51 0 0 0 22.41 0.87c14.82-3.69 27.36-36.93 38.55-49.32a339.99 339.99 0 0 1 28.23-23.28A220.38 220.38 0 0 0 314.99 242zM247.31 409.58a64.41 64.41 0 0 1 94.35 52.41c20.82-0.54 7.77-25.98 4.02-42.39-11.07-48.24 14.61-100.2 5.76-145.83-115.98 17.34-109.44 106.41-104.13 135.81z" fill="#6D6B6D" p-id="3381"></path><path d="M429.47 147.53c-54.6 15.48-124.56 55.14-147 104.19A221.67 221.67 0 0 0 314.99 242a220.38 220.38 0 0 1 103.2-74.37 49.41 49.41 0 0 0 4.77-4.98c5.76-2.79 14.28-2.58 14.61-11.25-2.49-2.67-5.13-4.71-8.1-3.87zM257 301.55c-24 26.55-19.08 76.26-16.14 111.63a69.63 69.63 0 0 1 6.54-3.6c-5.4-29.37-11.82-118.47 104.13-135.81a84.3 84.3 0 0 0-4.26-14.79A132.27 132.27 0 0 0 257 301.55z" fill="#DCD9D8" p-id="3382"></path><path d="M344.36 579.59a15.39 15.39 0 0 0-12.6-14.04c10.05 20.04-15.48 26.34-18 40.65a115.11 115.11 0 0 0 3.75 24.96 340.53 340.53 0 0 0 43.35 100.95 95.43 95.43 0 0 0 66.6 34.98c-75.9-62.55-81.3-174.87-83.1-187.5zM677.75 522.14a20.52 20.52 0 0 0-15-19.14c-8.67-2.46-13.71 15.18-16.44 30.39a71.28 71.28 0 0 1 3 10.89 207.24 207.24 0 0 1 28.44-22.14zM762.32 384.32c-2.76 26.52 33 5.49 38.34 3.66l-1.29-8.58a97.05 97.05 0 0 1-6.27-27.39 40.44 40.44 0 0 0-30.78 32.31zM534.17 384.32c0 24.27 41.13 23.85 56.22 14.37a121.59 121.59 0 0 1-15.75-44.67l-0.3-0.72s-40.17 5.46-40.17 31.02zM247.76 478.55a24 24 0 0 1-3.75 3.27 36.63 36.63 0 0 1 11.1-23.43 17.43 17.43 0 0 1 4.89-3.39 29.37 29.37 0 0 1 23.46-0.96 154.74 154.74 0 0 1 37.95 15c-5.79-19.92-15.72-37.89-36.24-40.14a61.02 61.02 0 0 0-66 58.89A115.74 115.74 0 0 0 249.62 566c-18.3-31.26-8.52-56.37-1.86-87.45zM546.95 165.29a314.7 314.7 0 0 1 181.41 6.66 123.81 123.81 0 0 0-14.7-9.87c-56.67-31.98-152.58-56.01-213-25.98-48.63 24.24-114.39 64.38-136.8 115.23a123.27 123.27 0 0 1 3.69 75.96 241.8 241.8 0 0 1 179.4-162zM727.64 263.84a36.27 36.27 0 0 0 3.66 14.61s2.61-3 6.9-6.96c0.93-22.02 25.95-34.56 54.96-25.98-6.66-8.58-13.41-17.67-20.43-26.67a46.53 46.53 0 0 0-45.09 45zM454.76 333.74c2.22 6 2.46 11.1 6.3 4.08a10.44 10.44 0 0 1-6.3-4.08z" fill="#F7E4CD" p-id="3383"></path><path d="M449.024 317.504a47.552 47.552 0 0 1 3.648-24.256 90.112 90.112 0 0 1 79.04-56.16 36.768 36.768 0 0 1 12.8 4.576c-9.6-17.216-28.8-32-67.2-6.016-42.816 29.216-38.944 70.08-31.136 77.888a17.632 17.632 0 0 1 2.848 3.968z" fill="#F7E4CD" p-id="3384"></path><path d="M207.47 853.37l157.98-70.59c-11.58-13.44-32.37-39-36-37.71a722.37 722.37 0 0 0-168.3 104.55 607.08 607.08 0 0 1 24.3 60.78h35.04a1842.51 1842.51 0 0 0-13.02-57.03z" fill="#49728B" p-id="3385"></path><path d="M842 911.21a625.08 625.08 0 0 0 16.44-61.74c1.08-5.43 3.18-14.25 4.68-22.68l-86.58-64.32a153.69 153.69 0 0 1 3.9 117c3 11.16 13.62 15.45 18 25.5-1.02 1.8-2.04 3.57-3 5.37h44.28a4.47 4.47 0 0 1 2.28 0.87zM765.23 874.22a32.43 32.43 0 0 0 5.16-11.43 32.43 32.43 0 0 1-5.16 11.43zM740.51 750.38a28.44 28.44 0 0 1 15.42-3.18l-7.14-5.31a43.71 43.71 0 0 0-8.28 8.49z" fill="#335061" p-id="3386"></path><path d="M864.68 808.37c-2.22-16.11-24-28.05-35.16-37.98-20.52-18.39-33.36-34.59-54.69-51.78a131.73 131.73 0 0 1-26.07 23.28l7.14 5.31a27.96 27.96 0 0 1 20.58 15.3l86.52 64.29a70.17 70.17 0 0 0 1.68-18.42z" fill="#49728B" p-id="3387"></path><path d="M649.16 908a13.14 13.14 0 0 0 0.27 2.28h14.37a9.99 9.99 0 0 1 19.98 0h23.22v-0.9a620.58 620.58 0 0 0-36-17.79c-12.72-5.34-21.84 16.41-21.84 16.41z" fill="#FFFFFF" p-id="3388"></path><path d="M649.16 908s9-21.9 21.9-16.44c9.66 4.14 27.63 13.47 36 17.79 0.3-6.6 0.6-13.2 1.02-19.8-18.54 1.17-28.83-16.77-41.82-18.15-11.34-1.23-21 13.05-35.7 6.87-3.39 3.72-6.45 7.77-9.9 11.43a189.39 189.39 0 0 1 14.67 20.55h14.28a13.14 13.14 0 0 1-0.45-2.25z" fill="#DCD9D8" p-id="3389"></path><path d="M464.352 805.408a215.616 215.616 0 0 1-72.608-12.8 9.024 9.024 0 0 0 0.544 13.472 245.024 245.024 0 0 0 68.48 18.496 55.936 55.936 0 0 0 3.584-19.168z" fill="#FFFFFF" p-id="3390"></path><path d="M459.424 834.208a39.456 39.456 0 0 1 1.312-9.6 245.024 245.024 0 0 1-68.48-18.496 135.584 135.584 0 0 0 67.168 28.096z" fill="#DCD9D8" p-id="3391"></path><path d="M770.39 862.79a88.89 88.89 0 0 0 2.19-26.1 211.71 211.71 0 0 0-6-41.34 90 90 0 0 0-30.27 1.47c-9 1.83-18.27 3.66-20.07 14.61s3.66 16.44-1.83 25.56-14.61 3.66-23.73 9c-6.21 3.72-2.28 13.35 0.87 19.14a364.14 364.14 0 0 0 73.77 9 32.43 32.43 0 0 0 5.07-11.34zM498.86 908.57l1.41 3.84c0.42 1.2 0.87 2.79 1.26 4.17l-0.27-3.51z" fill="#D33833" p-id="3392"></path><path d="M618.89 869.75l0.63-15.81a39.27 39.27 0 0 1-28.8-2.22c-28.11-15.33-1.5-10.8-11.46-31.14a97.08 97.08 0 0 0-36.72-10.95c-36.84 0-51-7.41-47.04 35.07 2.07 22.8 3.93 45.57 5.73 68.4 3 5.64 5.7 10.71 7.86 15a145.02 145.02 0 0 0 54.99-16.77 630.21 630.21 0 0 0 54.81-41.58zM632.81 848c0.63 2.67 1.29 5.67 1.92 9.3a21 21 0 1 0 12.84-39.3 28.59 28.59 0 0 1-14.76 30z" fill="#D33833" p-id="3393"></path><path d="M690.59 846.11c9-5.49 18.27 0 23.73-9s0-14.61 1.83-25.56 10.95-12.78 20.07-14.61a90 90 0 0 1 30.27-1.47 33.75 33.75 0 0 0-10.44-19.56c-22.41-13.08-61.68 24.75-79.95 32.79l-1.71 0.69a50.82 50.82 0 0 1 5.25 16.74 44.25 44.25 0 0 1 12.36-1.26 52.83 52.83 0 0 1 8.28 0.99c1.35 0.27 2.67 0.6 3.99 0.96a43.89 43.89 0 0 1 7.29 2.76 126.27 126.27 0 0 0-22.71 3 21 21 0 0 0-6 2.85 258.54 258.54 0 0 0-1.05 27q4.74 1.35 9.66 2.52c-3.15-5.49-7.08-15.12-0.87-18.84zM501.53 916.55c1.53 5.49 2.85 10.44 7.59 11.55-2.16-4.32-4.89-9.39-7.86-15zM495.5 844.67c-3.87-42.48 10.2-35.07 47.04-35.07a97.08 97.08 0 0 1 36.72 10.95c9.96 20.34-16.65 15.81 11.46 31.14a39.27 39.27 0 0 0 28.8 2.22v-1.89a91.17 91.17 0 0 0-27.48-8.7 105 105 0 0 0-11.13-1.08 46.65 46.65 0 0 1 8.73-3.18 98.55 98.55 0 0 0 27.18-8.43c0-2.37 0.18-4.74 0.27-7.08a56.49 56.49 0 0 1-6-0.81 46.95 46.95 0 0 1-5.31-1.32 47.55 47.55 0 0 1-8.82-3.81c-5.34-3-9.93-6.48-15.75-9.66a272.31 272.31 0 0 0-72.24-26.43c-27.63-5.28-27.87 33.15-26.7 61.47 0 3 0.24 5.76 0.39 8.4a197.55 197.55 0 0 0 16.32 57l2.37 4.5c-1.89-22.62-3.78-45.42-5.85-68.22zM647.6 818a30.27 30.27 0 0 0-17.46 6 51 51 0 0 0 0.21 12.36c0.33 2.37 0.84 4.65 1.44 7.14l0.93 3.93v0.51a28.59 28.59 0 0 0 14.88-29.94z" fill="#EF3D3A" p-id="3394"></path><path d="M456.38 306.92a44.58 44.58 0 0 0-3.42 22.74 11.76 11.76 0 0 0 1.83 4.08 10.44 10.44 0 0 0 6.3 4.08c15-33.6 39.81-66 89.55-54.42a17.04 17.04 0 0 0-8.22-24.84 34.47 34.47 0 0 0-12-4.29 84.48 84.48 0 0 0-74.04 52.65zM759.56 410.81c-0.96 39.72 61.47 20.16 70.98-1.98a514.38 514.38 0 0 1-35.16-68.7h-2.37a91.11 91.11 0 0 0 0 12 97.05 97.05 0 0 0 6.27 27.39c2.85 7.68 6.15 15 9 22.68-11.91 7.41-35.28 2.7-48.72 8.61zM600.02 415.19c-14.64 14.22-41.01 2.4-60.6 1.5-18.69 29.55 36.54 35.1 60.24 28.11a42.18 42.18 0 0 0 19.26-16.02c6.57-18.51-6.69-26.61-13.53-33.27a208.62 208.62 0 0 1-29.31-54.87 33.3 33.3 0 0 0-1.47 13.35 121.59 121.59 0 0 0 15.75 44.67c3.42 6.3 6.81 11.97 9.66 16.53zM650.15 581.45a197.61 197.61 0 0 0 133.98-42c-1.41-9 10.8-25.2 7.41-38.7-1.17-4.65-11.76-11.4-18.18-18.42a450.18 450.18 0 0 1-76.29-104.58c-1.59-3.69-2.55-24-13.56-15.9-1.32 49.26 35.28 90 62.58 123 13.32 16.05 29.4 25.23 14.61 50.19-24 9-62.49 35.07-95.67 29.37-11.37-1.95-13.74-10.95-15.69-20.04a71.28 71.28 0 0 0-3-10.89 21.57 21.57 0 0 0-1.38-3 39.66 39.66 0 0 0 5.19 50.97zM260 455a24.96 24.96 0 0 0-4.77 3.33 36.63 36.63 0 0 0-11.1 23.43 24 24 0 0 0 3.75-3.27c4.59-4.68 9.39-10.71 18-6.51a68.73 68.73 0 0 0 5.7 66.39c0-21.99-3.51-59.61 15.27-58.5 13.14 0.81 15.81 28.92 27 35.31a51.57 51.57 0 0 0-30.51-61.08 29.37 29.37 0 0 0-23.34 0.9zM718.04 598.25a120.48 120.48 0 0 0 0 31.89 102.75 102.75 0 0 0 88.86-67.47 256.14 256.14 0 0 1-88.86 35.58zM706.1 632a147.99 147.99 0 0 0-2.31-31.98 308.55 308.55 0 0 1-130.5-16.86c14.25 38.16 78.48 51.6 132.81 48.84zM567.38 613.7c-27.45 0-4.29 15.3 0.36 21.27a140.61 140.61 0 0 0 38.52 42.84 158.1 158.1 0 0 0 102.78 0.42 33.33 33.33 0 0 0 16.08-18.27c-62.34 1.5-136.23 7.71-157.74-46.26z" fill="#231F20" p-id="3395"></path><path d="M780.8 910.4a51.27 51.27 0 0 0-31.26-22.59 42.99 42.99 0 0 0-27.54 3.6c-0.24 6-0.54 12.45-0.93 18.96z" fill="#81B0C4" p-id="3396"></path><path d="M691.13 774.47c-20.58 1.83-44.79 11.19-67.56 12.57-2.07 0-4.14 0.18-6.18 0.18s-4.08 0-6-0.3a57.9 57.9 0 0 1-11.76-2.28 49.98 49.98 0 0 1-5.64-2.1c0 1.56-2.13 0.99-2.46 2.28a95.7 95.7 0 0 0 14.55 9.66 66.54 66.54 0 0 0 14.25 5.7 91.56 91.56 0 0 0 24.48 2.7c3 0 6.36 0 9.81-0.27 12.45-9.09 23.49-19.68 36.51-28.14z" fill="#F0D6B7" p-id="3397"></path><path d="M610.752 929.536l-11.232 7.456h16.864q-2.752-3.808-5.632-7.456z" fill="#81B0C4" p-id="3398"></path><path d="M172.43 925.07v-10.05a4.59 4.59 0 0 1 4.59-4.59h8.49a607.08 607.08 0 0 0-24.3-60.78 722.37 722.37 0 0 1 168.3-104.55c3.54-1.41 24.33 24.27 36 37.71a70.59 70.59 0 0 0 7.2 7.71 632.37 632.37 0 0 0 92.61 49.65 364.92 364.92 0 0 0 14.28 58.44c1.17 3.78 2.34 7.8 3.54 11.82h4.86a4.59 4.59 0 0 1 4.59 4.59v4.74h4.17a4.59 4.59 0 0 1 4.59 4.59V932h50.73v-7.65a4.59 4.59 0 0 1 4.59-4.59h23.4v-4.74a4.59 4.59 0 0 1 4.59-4.59h9.51l10.53-6.99q2.7 3.42 5.28 6.99h25.29a189.39 189.39 0 0 0-14.67-20.55c3.45-3.66 6.51-7.68 9.9-11.43 14.76 6.18 24.36-8.1 35.7-6.87 12.99 1.38 23.28 19.32 41.82 18.15-0.42 6.6-0.72 13.2-1.02 19.8v0.9h14.22c0.36-6.51 0.69-12.87 0.93-18.96a42.99 42.99 0 0 1 27.54-3.6 51.27 51.27 0 0 1 31.26 22.59h14.43c1.02-1.8 2.07-3.57 3-5.37-4.29-10.05-14.85-14.31-18-25.5a153.69 153.69 0 0 0-3.9-117 27.96 27.96 0 0 0-20.58-15.3 28.44 28.44 0 0 0-15.42 3.18 43.71 43.71 0 0 1 8.25-8.49 131.73 131.73 0 0 0 26.07-23.28c21.36 17.19 34.23 33.36 54.72 51.75 11.1 9.96 33 21.9 35.16 37.98a70.17 70.17 0 0 1-1.62 18.42c-1.53 8.43-3.6 17.25-4.68 22.68A625.08 625.08 0 0 1 842 911.21a4.5 4.5 0 0 1 2.16 3.81V932h11.04c7.74-24.24 15.33-49.05 22.98-74.67a186.21 186.21 0 0 0 14.34-65.61c-2.34-18.51-31.2-37.95-46.41-52.62-8.43-8.13-47.79-38.01-50.07-49.2s16.05-35.34 21.93-47.58a350.07 350.07 0 0 0 18.63-53.64c30.96-108.81 34.11-258.33-10.17-347.76a376.2 376.2 0 0 0-93-102.84c-69-52.26-196.89-58.05-280.17-27.39a404.43 404.43 0 0 0-66 28.17c-54.54 31.98-112.44 53.4-128.61 117.84-39.84 18-51.87 69-49.86 128.04a186.63 186.63 0 0 1 4.47 36.81c-1.11 5.52-8.58 12.57-10.08 16.14a159 159 0 0 0 18.27 137.76A96.75 96.75 0 0 0 286.04 617a137.04 137.04 0 0 0 13.41 50.16c5.1 11.19 24.15 31.29 17.13 45.57a209.61 209.61 0 0 1-44.85 28.98c-34.74 20.85-60 33.6-91.98 56.7-20.76 15-53.19 16.86-48 51.3a536.07 536.07 0 0 0 24.24 75.39c0.75 2.34 1.59 4.65 2.4 6.96h14.1z m250.53-762.42a49.41 49.41 0 0 1-4.77 4.98 339.99 339.99 0 0 0-28.23 23.28c-11.19 12.39-23.7 45.63-38.55 49.32a114.51 114.51 0 0 1-22.41-0.87A63.75 63.75 0 0 0 314.99 242a221.67 221.67 0 0 1-32.52 9.75c22.44-49.05 92.4-88.71 147-104.19 3-0.84 5.64 1.2 8.13 3.87-0.33 8.61-8.88 8.43-14.64 11.22z m-71.55 111c9 45.63-16.83 97.62-5.76 145.83 3.75 16.38 16.8 41.82-4.02 42.39a64.41 64.41 0 0 0-94.35-52.41 69.63 69.63 0 0 0-6.54 3.6c-3-35.37-7.98-85.08 16.14-111.63a132.27 132.27 0 0 1 90.27-42.57 84.3 84.3 0 0 1 4.26 14.91zM249.62 566a115.74 115.74 0 0 1-30.66-78 61.02 61.02 0 0 1 66-58.89c20.52 2.25 30.42 20.22 36.24 40.14 1.62 5.61 3 11.37 4.08 16.98 15.15 0.81 37.05-0.66 44.22-12.48-1.02-28.86-14.43-51.99-13.5-78.51a422.55 422.55 0 0 1 11.64-67.89 123.27 123.27 0 0 0-3.69-75.96c22.41-50.85 88.17-90.96 136.8-115.23 60.27-30 156.21-6 213 25.98a123.81 123.81 0 0 1 14.7 9.87 260.22 260.22 0 0 1 44.37 46.89c7.02 9 13.77 18 20.43 26.67-29.01-8.61-54 3.96-54.96 25.98a32.1 32.1 0 0 0 0.48 7.38c27-24.63 72.81-0.27 86.4 27a287.01 287.01 0 0 1 15 103.38 427.26 427.26 0 0 1-64.35 258.63 187.74 187.74 0 0 1-40.95 50.4c-42.75 30-107.73 57.24-163.38 38.58-73.53-24.69-106.95-73.68-147.39-129.78a133.98 133.98 0 0 0 44.16 79.68 199.44 199.44 0 0 0 65.28 53.34c-20.19-4.74-51-6.24-59.55 12a463.95 463.95 0 0 1-46.47-4.86 95.43 95.43 0 0 1-66.6-34.98 340.53 340.53 0 0 1-43.35-100.95 115.11 115.11 0 0 1-3.75-24.96c2.64-14.34 28.17-20.61 18-40.65-18.54-0.18-22.71 16.86-39.72 18.54a52.02 52.02 0 0 1-42.48-18.3z m383.1 281.4l-0.93-3.93a83.61 83.61 0 0 1-1.44-7.14 51 51 0 0 1-0.21-12.36 30.27 30.27 0 0 1 17.46-6 21 21 0 1 1-12.84 39.3 154.05 154.05 0 0 0-1.92-9.3z m-233.46-72.57a202.14 202.14 0 0 0 68.07 12 52.44 52.44 0 0 1-3.36 18 36.99 36.99 0 0 0-1.23 9 127.11 127.11 0 0 1-63-26.46 8.46 8.46 0 0 1-0.48-12.39z m221.01 25.17a66.54 66.54 0 0 1-14.25-5.7 97.8 97.8 0 0 1-14.55-9.66c0.33-1.29 2.37-0.72 2.46-2.28a49.98 49.98 0 0 0 5.64 2.1 57.9 57.9 0 0 0 11.76 2.28 81.15 81.15 0 0 0 12.18 0.12c22.77-1.38 46.98-10.74 67.56-12.57-12.99 8.49-24 19.08-36.54 28.14a188.7 188.7 0 0 1-9.81 0.27 91.56 91.56 0 0 1-24.45-2.55z m-56.16 111.18a145.02 145.02 0 0 1-54.99 16.77c-4.74-1.11-6-6-7.59-11.55a81.66 81.66 0 0 0-2.67-8.01 197.55 197.55 0 0 1-16.32-57c0-2.64-0.27-5.46-0.39-8.4-1.17-28.32-0.93-66.75 26.7-61.47a272.31 272.31 0 0 1 72.24 26.43c5.82 3.18 10.41 6.75 15.75 9.66a47.55 47.55 0 0 0 8.82 3.81 46.95 46.95 0 0 0 5.31 1.32 56.49 56.49 0 0 0 6 0.81c0 2.34-0.18 4.71-0.27 7.08a98.55 98.55 0 0 1-27.18 8.43 46.65 46.65 0 0 0-8.73 3.18 105 105 0 0 1 11.13 1.08 91.17 91.17 0 0 1 27.48 8.7v1.89l-0.63 15.81a630.21 630.21 0 0 1-54.66 41.61z m127.35-46.08q-4.92-1.17-9.66-2.52a258.54 258.54 0 0 1 1.05-27 21 21 0 0 1 6-2.85 126.27 126.27 0 0 1 22.71-3 43.89 43.89 0 0 0-7.29-2.76 55.29 55.29 0 0 0-3.99-0.96 52.83 52.83 0 0 0-8.28-1.14 44.25 44.25 0 0 0-12.21 1.14 50.82 50.82 0 0 0-5.25-16.74l1.71-0.69c18.27-8.04 57.54-45.87 79.95-32.79a33.75 33.75 0 0 1 10.44 19.56 211.71 211.71 0 0 1 6 41.34 88.89 88.89 0 0 1-2.19 26.1 32.43 32.43 0 0 1-5.16 11.43 364.14 364.14 0 0 1-73.83-9z" fill="#231F20" p-id="3399"></path><path d="M560.96 603.584c-19.712-9.6-33.792-4.32-36.352-0.896-4.864 6.4 5.216 41.792 5.216 41.792l9.6 1.952c-1.824-38.944 21.536-42.848 21.536-42.848z" fill="#F7E4CD" p-id="3400"></path><path d="M673.79 900.83a10.02 10.02 0 0 0-9.99 9.57h19.98a10.02 10.02 0 0 0-9.99-9.57z" fill="#1D1919" p-id="3401"></path><path d="M501.26 924.35a4.59 4.59 0 0 0-4.59-4.59h-4.17v5.31a4.59 4.59 0 0 1-4.59 4.59H177.02a4.59 4.59 0 0 1-4.59-4.59V932h328.83zM839.54 929.66h-255a4.59 4.59 0 0 1-4.59-4.59v-5.31h-23.4a4.59 4.59 0 0 0-4.59 4.59V932h292.11v-6.93a4.59 4.59 0 0 1-4.53 4.59z" fill="#231F20" p-id="3402"></path><path d="M177.02 929.66H488a4.59 4.59 0 0 0 4.59-4.59v-10.05a4.59 4.59 0 0 0-4.59-4.59H177.02a4.59 4.59 0 0 0-4.59 4.59v10.05a4.59 4.59 0 0 0 4.59 4.59zM579.98 925.07a4.59 4.59 0 0 0 4.59 4.59h255a4.59 4.59 0 0 0 4.59-4.59v-10.05a4.5 4.5 0 0 0-2.16-3.81 4.47 4.47 0 0 0-2.43-0.78h-255a4.59 4.59 0 0 0-4.59 4.59v10.05z" fill="#231F20" p-id="3403"></path></svg>