<?xml version="1.0" standalone="no"?><!DOCTYPE svg PUBLIC "-//W3C//DTD SVG 1.1//EN" "http://www.w3.org/Graphics/SVG/1.1/DTD/svg11.dtd"><svg t="1745933951780" class="icon" viewBox="0 0 1024 1024" version="1.1" xmlns="http://www.w3.org/2000/svg" p-id="1887" xmlns:xlink="http://www.w3.org/1999/xlink" width="200" height="200"><path d="M656.40178584 62H189.97678584C176.99107168 62 166.46428584 72.52678584 166.46428584 92.95357168V945.92857168c0 5.54464248 10.52678584 16.07142832 23.5125 16.07142832h644.04642832c12.98571416 0 23.5125-10.52678584 23.5125-16.07142832V270.575c0-11.18571416-1.49464248-14.78571416-4.13035664-17.4375L666.39821416 66.13035752A14.20714248 14.20714248 0 0 0 656.40178584 62z" fill="#E9E9E0" p-id="1888"></path><path d="M664.67857168 64.42678584V254.85714248h190.43035664z" fill="#D9D7CA" p-id="1889"></path><path d="M366.24821416 293.92678584m-73.43035664 0a73.43035752 73.43035752 0 1 0 146.86071415 0 73.43035752 73.43035752 0 1 0-146.86071415 0Z" fill="#F3D55B" p-id="1890"></path><path d="M166.46428584 688.78571416h691.07142832V512l-160.71428584-152.67857168L528.07142832 544.14285752l-88.11964248-88.11964336z" fill="#26B99A" p-id="1891"></path><path d="M834.02321416 962H189.97678584A23.5125 23.5125 0 0 1 166.46428584 938.4875V688.78571416h691.07142832v249.70178584c0 12.98571416-10.52678584 23.5125-23.5125 23.5125z" fill="#14A085" p-id="1892"></path><path d="M406.34642832 747.44642832v126.12857168c0 7.61785752-1.39821416 14.03035752-4.1785708 19.22142832a34.425 34.425 0 0 1-11.20178584 12.51964335 44.64642832 44.64642832 0 0 1-16.15178584 6.58928585 92.89285752 92.89285752 0 0 1-18.7875 1.88035664c-3.23035752 0-7.00714248-0.3375-11.31428584-0.99642832-4.32321416-0.65892832-8.79107167-1.67142832-13.40357168-3.06964336s-9.04821416-2.97321416-13.2910708-4.725a48.56785752 48.56785752 0 0 1-10.76785752-5.93035664l11.20178584-17.79107168c1.4625 1.0125 3.55178584 2.08928584 6.26785664 3.18214336 2.7 1.09285752 5.67321416 2.12142833 8.90357168 3.06964248 3.21428584 0.96428584 6.58928584 1.78392832 10.10892832 2.52321416s6.81428584 1.09285752 9.8839292 1.09285752c7.7625 0 13.95-1.51071416 18.5625-4.5s7.05535752-8.1 7.36071416-15.26785752V747.44642832h26.80714248zM472.04642833 912.69285752h-26.37321417V750.74107168h46.575c6.87857167 0 13.69285752 1.09285752 20.42678584 3.29464248 6.73392832 2.20178584 12.77678584 5.49642833 18.12857168 9.88392832 5.35178584 4.3875 9.675 9.70714248 12.96964248 15.92678584s4.95 13.21071416 4.95 20.98928584c0 8.2125-1.39821416 15.6375-4.17857168 22.30714336a46.60714248 46.60714248 0 0 1-11.65178496 16.81071415c-4.98214248 4.53214248-10.99285752 8.05178584-18.01607168 10.54285665s-14.80178584 3.72857168-23.2875 3.72857168h-19.55892832v58.46785752z m0-141.94285752v64.15714248h24.17142919c3.21428584 0 6.39642832-0.54642832 9.5625-1.65535664 3.15-1.09285752 6.04285752-2.89285752 8.67857081-5.38392832s4.75714248-5.9625 6.36428583-10.43035752c1.60714248-4.46785752 2.41071416-9.99642832 2.41071417-16.58571416 0-2.63571416-0.36964248-5.68928584-1.09285665-9.1125a26.30892832 26.30892832 0 0 0-4.5-9.88392832 26.63035752 26.63035752 0 0 0-9.5625-7.90714336c-4.11428584-2.1375-9.53035752-3.19821416-16.26428584-3.19821416h-19.76785751zM696.82142832 829.18571416v62.61428584c-3.375 4.25892833-7.13571416 7.71428584-11.31428584 10.43035752s-8.56607167 4.95-13.1785708 6.70178496-9.36964248 3.00535752-14.2875 3.72857168c-4.91785752 0.77142833-9.77142832 1.125-14.6089292 1.125-9.675 0-18.5625-1.75178584-26.69464248-5.27142832s-15.23571416-8.71071416-21.31071416-15.60535752c-6.075-6.89464248-10.84821416-15.525-14.2875-25.92321416-3.43928584-10.39821416-5.15892832-22.41964248-5.15892832-36.03214248s1.71964248-25.60178584 5.15892832-35.91964336c3.43928584-10.33392833 8.19642832-18.93214248 14.2875-25.81071416a60.75 60.75 0 0 1 21.42321416-15.71785664 65.39464248 65.39464248 0 0 1 26.58214248-5.3839292c8.79107167 0 16.9875 1.4625 24.60535752 4.3875 7.61785752 2.94107168 14.41607167 7.32857168 20.42678584 13.17857168l-18.24107168 16.26428584a31.35535752 31.35535752 0 0 0-12.08571416-9.225 36.19285752 36.19285752 0 0 0-14.0625-2.86071416c-5.41607168 0-10.59107168 1.0125-15.49285752 3.06964248a33.1875 33.1875 0 0 0-13.1785708 10.43035752c-3.88928584 4.91785752-6.92678584 11.23392832-9.1125 19.0125s-3.375 17.27678584-3.51964336 28.55892832c0.14464248 10.99285752 1.28571416 20.50714248 3.40714336 28.55892832 2.12142833 8.05178584 5.04642832 14.64107168 8.7910708 19.76785752s7.9875 8.93571416 12.74464336 11.42678584c4.75714248 2.49107168 9.77142832 3.72857168 15.05892832 3.7285708 1.60714248 0 3.76071416-0.1125 6.47678584-0.3375a78.91071416 78.91071416 0 0 0 8.13214248-1.09285664 52.875 52.875 0 0 0 7.79464336-2.08928584 11.16964248 11.16964248 0 0 0 5.49642832-3.72857168v-39.98571416h-27.46607168v-18.01607168H696.82142832z" fill="#FFFFFF" p-id="1893"></path></svg>