<?xml version="1.0" standalone="no"?><!DOCTYPE svg PUBLIC "-//W3C//DTD SVG 1.1//EN" "http://www.w3.org/Graphics/SVG/1.1/DTD/svg11.dtd"><svg t="1745933962498" class="icon" viewBox="0 0 1024 1024" version="1.1" xmlns="http://www.w3.org/2000/svg" p-id="2338" xmlns:xlink="http://www.w3.org/1999/xlink" width="200" height="200"><path d="M128.448 479.232a80.32 80.32 0 0 0 50.144-16.576 76.064 76.064 0 0 0 25.76-43.456 488.352 488.352 0 0 0 6.848-94.208q0.384-66.72 2.4-87.904a167.552 167.552 0 0 1 13.376-53.952 96.8 96.8 0 0 1 24.16-32.576A97.472 97.472 0 0 1 288 132 216.384 216.384 0 0 1 337.408 128h22.4v62.72h-12.384a74.816 74.816 0 0 0-55.136 14.976 108.8 108.8 0 0 0-13.6 66.944 1153.728 1153.728 0 0 1-4.384 132.256 151.488 151.488 0 0 1-24.576 65.92A146.144 146.144 0 0 1 195.2 512a121.888 121.888 0 0 1 63.744 56.128 283.552 283.552 0 0 1 19.776 123.68q0 77.92 1.6 92.8a56.16 56.16 0 0 0 16.128 37.792 84.448 84.448 0 0 0 50.944 10.784h12.384V896h-22.4a180.96 180.96 0 0 1-56.736-6.4 95.04 95.04 0 0 1-42.368-29.76 107.296 107.296 0 0 1-21.792-52.16 773.6 773.6 0 0 1-5.28-103.488 527.008 527.008 0 0 0-6.848-99.392 77.056 77.056 0 0 0-25.76-43.552 79.648 79.648 0 0 0-50.144-16.768zM895.552 544.352a79.648 79.648 0 0 0-50.144 16.768 77.056 77.056 0 0 0-25.76 43.552 527.008 527.008 0 0 0-6.784 99.488 773.6 773.6 0 0 1-5.408 103.488 107.296 107.296 0 0 1-21.792 52.16 95.04 95.04 0 0 1-42.368 29.76 180.96 180.96 0 0 1-56.736 6.4h-22.4V833.28h12.384a84.448 84.448 0 0 0 50.944-10.784 56.16 56.16 0 0 0 16.192-37.952q1.6-14.784 1.6-92.8a283.552 283.552 0 0 1 19.776-123.68A121.888 121.888 0 0 1 828.8 512a146.144 146.144 0 0 1-54.4-41.152 151.488 151.488 0 0 1-24.576-65.92 1153.728 1153.728 0 0 1-4.384-132.256 108.8 108.8 0 0 0-13.6-66.944 74.816 74.816 0 0 0-55.136-14.976h-12.384V128h22.4a216.384 216.384 0 0 1 49.28 4 97.472 97.472 0 0 1 36.768 18.592 96.8 96.8 0 0 1 24.16 32.576 167.552 167.552 0 0 1 13.376 53.952q1.984 21.184 2.4 87.904a488.352 488.352 0 0 0 6.784 94.304 76.064 76.064 0 0 0 25.76 43.36 80.32 80.32 0 0 0 50.144 16.576z" fill="#F5DE19" p-id="2339"></path></svg>