<?xml version="1.0" standalone="no"?><!DOCTYPE svg PUBLIC "-//W3C//DTD SVG 1.1//EN" "http://www.w3.org/Graphics/SVG/1.1/DTD/svg11.dtd"><svg t="1752050180570" class="icon" viewBox="0 0 1024 1024" version="1.1" xmlns="http://www.w3.org/2000/svg" p-id="1718" xmlns:xlink="http://www.w3.org/1999/xlink" width="200" height="200"><path d="M864.50000029 289.49999961l-337.5-149.99999941c-10.00000019-5.0000001-20.00000039-5.0000001-30.00000058 0l-337.5 149.99999941c-20.00000039 7.49999971-27.5000001 29.99999971-19.99999952 50.0000001 5.0000001 7.49999971 10.00000019 15.00000029 19.99999952 20.00000039l337.5 150.00000029c10.00000019 5.0000001 20.00000039 5.0000001 30.00000058 0l337.5-150.00000029c20.00000039-7.49999971 27.5000001-29.99999971 19.99999951-50.0000001-5.0000001-7.49999971-12.49999981-15.00000029-19.99999951-20.00000039zM512 699.49999971c-5.0000001 0-10.00000019 0-15.00000029-2.49999961l-337.5-150.00000029c-17.4999999-10.00000019-27.5000001-32.5000002-17.4999999-50.0000001 7.49999971-17.4999999 29.99999971-24.99999961 47.50000048-17.49999991L512 622.00000039l322.49999971-142.50000058c20.00000039-7.49999971 39.9999999 2.49999961 50.0000001 20.00000039 7.49999971 17.4999999 0 39.9999999-17.49999991 47.49999961l-337.5 150.00000029c-7.49999971 2.49999961-12.49999981 2.49999961-17.4999999 2.49999961z m0 187.50000058c-5.0000001 0-10.00000019 0-15.00000029-2.50000048l-337.5-149.99999942c-17.4999999-10.00000019-27.5000001-32.5000002-17.4999999-50.0000001 7.49999971-17.4999999 29.99999971-24.99999961 47.50000048-17.4999999L512 809.5000001l322.49999971-142.49999971c20.00000039-7.49999971 39.9999999 2.49999961 50.0000001 19.99999951 7.49999971 17.4999999 0 39.9999999-17.49999991 47.50000049l-337.5 149.99999941c-7.49999971 2.49999961-12.49999981 2.49999961-17.4999999 2.50000049z" fill="#F1A41D" p-id="1719"></path></svg>
