<?xml version="1.0" standalone="no"?><!DOCTYPE svg PUBLIC "-//W3C//DTD SVG 1.1//EN" "http://www.w3.org/Graphics/SVG/1.1/DTD/svg11.dtd"><svg t="1745935071373" class="icon" viewBox="0 0 1280 1024" version="1.1" xmlns="http://www.w3.org/2000/svg" p-id="1441" xmlns:xlink="http://www.w3.org/1999/xlink" width="250" height="200"><path d="M1099.82348633 451.02587891c0-33.78295898 5.2734375-53.72314453 5.2734375-89.97802735 0-56.35986328-20.76416016-74.48730469-66.74194336-74.48730468h-33.78295899v39.88037109h10.38208008c23.40087891 0 28.50952148 7.74536133 28.50952149 36.41967773 0 26.86157227-2.63671875 53.72314453-2.63671875 84.86938477 0 39.88037109 13.01879883 55.37109375 38.89160156 61.46850586v2.63671875c-26.03759766 6.09741211-38.89160156 21.58813477-38.89160156 61.46850586 0 31.14624023 2.63671875 56.35986328 2.63671875 84.86938476 0 29.49829102-6.09741211 37.24365234-28.50952149 37.24365235v0.82397461h-10.38208008V737.76904297h33.78295899c45.81298828 0 66.74194336-18.12744141 66.74194336-74.48730469 0-37.24365234-5.2734375-56.35986328-5.2734375-89.97802734 0-18.12744141 11.20605469-37.24365234 44.98901367-38.89160156v-44.98901368c-33.78295898-1.15356445-44.98901367-20.26977539-44.98901367-38.39721679z m-174.0234375 52.734375c-26.03759766-10.38208008-50.26245117-16.47949219-50.26245117-33.78295899 0-13.01879883 10.38208008-20.76416016 29.49829101-20.76416015s36.41967773 7.74536133 55.37109375 21.58813476l34.6069336-45.81298828c-21.58813477-16.47949219-51.08642578-33.78295898-90.96679688-33.78295898-58.83178711 0-98.7121582 33.78295898-98.7121582 81.4086914 0 42.35229492 37.24365234 64.10522461 68.38989258 76.13525391 26.86157227 10.38208008 52.89916992 19.11621094 52.89916992 36.41967773 0 13.01879883-10.38208008 21.58813477-33.78295899 21.58813477-21.58813477 0-43.34106445-8.73413086-66.74194336-26.86157227l-34.60693359 50.26245117c26.03759766 21.58813477 65.75317383 36.41967773 98.7121582 36.41967774 69.21386719 0 106.45751953-36.41967773 106.45751953-84.04541016s-37.07885742-67.56591797-70.8618164-78.77197265zM334.35107422 601.6484375c-6.09741211 0-13.84277344-5.2734375-13.84277344-21.58813477V286.39575195H197.57128906c-46.80175781 0-67.56591797 18.12744141-67.56591797 74.48730469 0 37.24365234 5.2734375 58.0078125 5.2734375 89.97802734 0 18.12744141-11.20605469 37.24365234-44.98901367 38.89160157v44.98901367c33.78295898 0.82397461 44.98901367 19.94018555 44.98901367 38.06762695 0 31.97021484-5.2734375 51.08642578-5.2734375 88.33007813 0 56.35986328 20.76416016 74.48730469 66.74194336 74.48730468h33.78295899V695.74633789h-10.38208008c-21.58813477 0-28.50952148-8.73413086-28.50952149-37.24365234s2.63671875-52.89916992 2.63671875-84.86938477c0-39.88037109-13.01879883-55.37109375-38.89160156-61.46850586V509.52807617c26.03759766-6.09741211 38.89160156-21.58813477 38.89160156-61.46850586 0-31.14624023-2.63671875-56.35986328-2.63671875-84.86938476s6.09741211-36.41967773 28.50952149-36.41967774H243.38427734v248.51074219C243.38427734 628.18041992 261.51171875 662.78735352 314.41088867 662.78735352c16.47949219 0 29.49829102-2.63671875 38.89160156-6.09741211l-8.73413085-56.35986329c-5.10864258 1.31835938-7.58056641 1.31835938-10.21728516 1.31835938zM716.1809082 503.76025391c-26.86157227-10.38208008-51.08642578-16.47949219-51.08642578-33.78295899 0-13.01879883 10.38208008-20.76416016 29.49829102-20.76416015 19.11621094 0 36.41967773 7.74536133 55.37109375 21.58813476l34.60693359-45.81298828c-21.58813477-16.47949219-51.08642578-33.78295898-90.96679687-33.78295898-58.83178711 0-98.7121582 33.78295898-98.71215821 81.4086914 0 42.35229492 37.24365234 64.10522461 68.38989258 76.13525391 26.86157227 10.38208008 52.89916992 19.11621094 52.89916992 36.41967773 0 13.01879883-10.38208008 21.58813477-33.78295898 21.58813477-21.58813477 0-43.34106445-8.73413086-66.74194336-26.86157227l-33.78295899 50.26245117c26.03759766 21.58813477 65.75317383 36.41967773 98.71215821 36.41967774 69.21386719 0 106.45751953-36.41967773 106.45751953-84.04541016 0.16479492-47.62573242-37.07885742-67.56591797-70.86181641-78.77197265z m-255.4321289-113.37890625c-63.28125 0-123.76098633 52.89916992-122.11303711 135.95581054 0 85.69335938 56.35986328 135.95581055 130.68237304 135.95581055 31.14624023 0 65.75317383-11.20605469 92.6147461-29.49829102L535.89526367 586.98168945c-19.11621094 11.20605469-37.24365234 16.47949219-56.35986328 16.47949219-34.60693359 0-61.46850586-16.47949219-68.38989258-56.35986328H568.03027344c0.82397461-6.09741211 2.63671875-18.12744141 2.63671875-31.97021484 0.98876953-70.20263672-37.24365234-124.74975586-109.91821289-124.74975586z m-49.43847657 109.09423828c5.2734375-34.60693359 26.03759766-51.08642578 50.26245118-51.08642578 31.14624023 0 43.34106445 21.58813477 43.34106445 51.08642578H411.31030273z" fill="#17ABE3" p-id="1442"></path></svg>