<?xml version="1.0" standalone="no"?><!DOCTYPE svg PUBLIC "-//W3C//DTD SVG 1.1//EN" "http://www.w3.org/Graphics/SVG/1.1/DTD/svg11.dtd"><svg t="1745933968763" class="icon" viewBox="0 0 1024 1024" version="1.1" xmlns="http://www.w3.org/2000/svg" p-id="2636" xmlns:xlink="http://www.w3.org/1999/xlink" width="200" height="200"><path d="M265.69703581 108.27733947c-22.30989307 2.26020306-39.39979495 21.25666915-39.39979495 44.2046474v722.64988671c0 24.47784353 19.48848315 44.20464738 43.96632668 44.20464737h536.69823371c24.47784353 0 43.96632668-19.72680384 43.96632669-44.20464737V332.18348756H689.24674634c-33.10351567 0-61.98644717-24.14726887-61.98644718-56.22062342V108.27733947H270.26356754c-1.53755245 0-3.07510627-0.15375525-4.56653173 0z m392.31432337 0v167.69321182c0 13.1768282 12.54643156 25.46187627 31.23538716 25.46187765h161.6813816L658.01135918 108.27733947z m-70.15085358 311.35447155c9.01774809 0 15.99055099 3.32880263 21.14135237 9.60970625 5.15080277 6.11946122 6.73448222 13.64578246 4.80485383 22.8249743-1.76818601 9.33294709-6.44234738 17.34359686-14.17623801 23.77825572-7.72620347 6.28090362-16.36725126 9.37907269-25.70019832 9.3790727-9.34063423 0-16.39031406-3.02129215-21.37967309-9.13306487-4.83560377-6.28090362-6.25784081-14.20698931-4.32821242-23.54762215 1.92962838-9.65583187 6.53459998-17.42816231 13.93791728-23.53993641 7.56476109-6.11946122 16.20580749-9.37138555 25.70019836-9.37138554z m3.36724111 95.62041836c6.91898877 0 9.60970625 3.64400027 8.1644064 10.56298904-0.6457723 3.05973061-2.07569649 7.65701366-4.3205239 13.9379173-2.09107216 6.11946122-3.44411803 10.7167443-4.0822032 13.9379173-2.0987593 10.61680318-5.58900432 26.63810548-10.09403616 48.04852988a3489.04590702 3489.04590702 0 0 0-9.84802558 47.80252065c-5.15080277 25.11592732-8.32584878 42.32114461-9.60970626 51.65409168-1.61443075 10.78593407 0.69189929 18.08162315 6.96511437 21.6256823 5.95801746 1.44529985 11.90065926 2.95210098 18.02012052 4.5588446 6.1117727 1.452987 8.8101787 5.25843102 7.68776499 11.5316475-1.76818601 8.68717478-16.28268581 12.97694736-43.48199676 12.97694735-29.62095779 0-54.75994791-0.4766414-75.20171523-1.44529985-9.97871801-0.48432854-14.17623798-4.28977258-12.73093812-11.5316475 1.28385609-6.43465886 5.56594153-10.40154528 12.97694596-12.0082889 12.22354541-2.73684447 19.0502816-4.3205239 20.17269531-4.80485243 7.88764723-4.02838907 12.96157169-12.35423785 15.37553-24.74691557 1.76818601-9.17150332 4.55115607-22.8941641 8.41041423-41.08341411a2431.94750244 2431.94750244 0 0 0 8.41041424-40.83740628c4.50503046-22.37139572 7.20343508-37.2856586 8.17209354-44.6889773 1.44529985-10.78593407-3.6286246-17.4512265-15.37552863-19.69605253-11.59314877-2.25251454-16.59019629-6.849799-15.14489643-13.93791729 1.10703804-5.97339312 5.33530934-9.50976513 12.73862527-10.57067756-0.08456546 0.24600783 5.90420333 0.48432854 18.02012049 0.48432992 6.27321647 0 15.62922637-1.90656559 27.86814743-5.76582376 12.39267632-3.86694531 21.43348858-6.00414446 26.90717752-6.00414444z" fill="#db6003" p-id="2637"></path></svg>