<?xml version="1.0" standalone="no"?><!DOCTYPE svg PUBLIC "-//W3C//DTD SVG 1.1//EN" "http://www.w3.org/Graphics/SVG/1.1/DTD/svg11.dtd"><svg t="1745933955724" class="icon" viewBox="0 0 1024 1024" version="1.1" xmlns="http://www.w3.org/2000/svg" p-id="2039" xmlns:xlink="http://www.w3.org/1999/xlink" width="200" height="200"><path d="M656.40178584 62H189.97678584C176.99107168 62 166.46428584 72.52678584 166.46428584 92.95357168V945.92857168c0 5.54464248 10.52678584 16.07142832 23.5125 16.07142832h644.04642832c12.98571416 0 23.5125-10.52678584 23.5125-16.07142832V270.575c0-11.18571416-1.49464248-14.78571416-4.13035664-17.4375L666.39821416 66.13035752A14.20714248 14.20714248 0 0 0 656.40178584 62z" fill="#E9E9E0" p-id="2040"></path><path d="M834.02321416 962H189.97678584A23.5125 23.5125 0 0 1 166.46428584 938.4875V688.78571416h691.07142832v249.70178584c0 12.98571416-10.52678584 23.5125-23.5125 23.5125z" fill="#659C35" p-id="2041"></path><path d="M664.67857168 64.42678584V254.85714248h190.43035664z" fill="#D9D7CA" p-id="2042"></path><path d="M341.40178584 913.78571416h-26.37321416V751.85h46.575c6.87857167 0 13.69285752 1.09285752 20.42678584 3.29464248 6.73392832 2.20178584 12.77678584 5.49642833 18.1285708 9.8839292 5.35178584 4.3875 9.675 9.70714248 12.96964336 15.92678584s4.95 13.21071416 4.95 20.98928496c0 8.2125-1.39821416 15.6375-4.17857168 22.30714336a46.60714248 46.60714248 0 0 1-11.65178584 16.81071416c-4.98214248 4.53214248-10.99285752 8.05178584-18.01607168 10.54285752s-14.80178584 3.72857168-23.2875 3.7285708h-19.55892832V913.78571416z m0-141.94285664v64.15714248h24.17142832c3.21428584 0 6.39642832-0.54642832 9.5625-1.65535752 3.15-1.09285752 6.04285752-2.89285752 8.67857168-5.38392832 2.63571416-2.49107168 4.75714248-5.9625 6.36428584-10.43035664 1.60714248-4.46785752 2.41071416-9.99642832 2.41071416-16.58571504 0-2.63571416-0.36964248-5.68928584-1.09285751-9.1125a26.30892832 26.30892832 0 0 0-4.5-9.88392832 26.63035752 26.63035752 0 0 0-9.56250001-7.90714248c-4.09821416-2.12142833-9.53035752-3.18214248-16.26428584-3.18214336h-19.76785664zM565.29285752 751.85V913.78571416h-26.80714336l-63.49821416-111.61607168V913.78571416h-26.80714248V751.85h26.80714248l63.49821416 111.61607168v-111.61607168h26.80714336zM723.5 830.29464248v62.61428585c-3.375 4.25892833-7.13571416 7.71428584-11.31428584 10.43035751s-8.56607167 4.95-13.17857168 6.70178584-9.38571416 3.00535752-14.2875 3.74464248a97.97142832 97.97142832 0 0 1-14.60892832 1.09285752c-9.675 0-18.5625-1.75178584-26.69464249-5.2714292s-15.23571416-8.71071416-21.31071415-15.60535664c-6.075-6.89464248-10.84821416-15.525-14.2875-25.92321416-3.43928584-10.39821416-5.15892832-22.41964248-5.1589292-36.03214335s1.71964248-25.60178584 5.1589292-35.91964249c3.43928584-10.33392833 8.19642832-18.93214248 14.2875-25.81071416a60.75 60.75 0 0 1 21.42321415-15.71785752 65.39464248 65.39464248 0 0 1 26.58214249-5.38392832c8.79107167 0 16.9875 1.4625 24.60535751 4.3875 7.61785752 2.94107168 14.41607167 7.32857168 20.42678585 13.17857168l-18.24107168 16.26428496a31.35535752 31.35535752 0 0 0-12.08571417-9.225 36.19285752 36.19285752 0 0 0-14.0625-2.86071415c-5.41607168 0-10.59107168 1.0125-15.49285751 3.06964335a33.1875 33.1875 0 0 0-13.17857168 10.43035665c-3.88928584 4.91785752-6.92678584 11.23392832-9.1125 19.0125s-3.375 17.27678584-3.51964248 28.55892919c0.14464248 10.99285752 1.28571416 20.50714248 3.40714248 28.55892832 2.12142833 8.05178584 5.04642832 14.64107168 8.79107168 19.76785664s7.9875 8.93571416 12.74464336 11.42678585c4.75714248 2.49107168 9.77142832 3.72857168 15.05892832 3.72857167 1.60714248 0 3.76071416-0.1125 6.47678583-0.3375a78.91071416 78.91071416 0 0 0 8.13214249-1.09285752 52.875 52.875 0 0 0 7.79464336-2.08928496 11.16964248 11.16964248 0 0 0 5.49642832-3.72857168v-39.98571416h-27.46607168v-18.01607168h53.61428584z" fill="#FFFFFF" p-id="2043"></path><path d="M366.24821416 293.92678584m-73.43035664 0a73.43035752 73.43035752 0 1 0 146.86071415 0 73.43035752 73.43035752 0 1 0-146.86071415 0Z" fill="#F3D55B" p-id="2044"></path><path d="M166.46428584 688.78571416h691.07142832V512l-160.71428584-152.67857168L528.07142832 544.14285752l-88.11964248-88.11964336z" fill="#88C057" p-id="2045"></path></svg>