<?xml version="1.0" standalone="no"?><!DOCTYPE svg PUBLIC "-//W3C//DTD SVG 1.1//EN" "http://www.w3.org/Graphics/SVG/1.1/DTD/svg11.dtd"><svg t="1745934925860" class="icon" viewBox="0 0 1024 1024" version="1.1" xmlns="http://www.w3.org/2000/svg" p-id="1381" xmlns:xlink="http://www.w3.org/1999/xlink" width="200" height="200"><path d="M827.84 563.84c-30.72 0-58.56 6.72-80.64 18.24-8.64-16.32-16.32-30.72-18.24-42.24-0.96-12.48-3.84-19.2-0.96-34.56 0.96-15.36 11.52-36.48 11.52-37.44 0-0.96-0.96-9.6-19.2-9.6s-33.6 2.88-34.56 8.64c-0.96 3.84-5.76 15.36-6.72 26.88-2.88 16.32-36.48 73.92-54.72 104.64-5.76-12.48-11.52-22.08-12.48-30.72-0.96-12.48-3.84-19.2-0.96-34.56 0.96-15.36 11.52-36.48 11.52-37.44 0-0.96-0.96-9.6-19.2-9.6s-33.6 2.88-34.56 8.64-3.84 15.36-6.72 26.88c-3.84 11.52-47.04 107.52-58.56 132.48-5.76 12.48-11.52 24-14.4 30.72v0.96c-2.88 5.76-5.76 9.6-5.76 9.6-2.88 3.84-5.76 8.64-6.72 8.64s-2.88-11.52 0-27.84c6.72-33.6 22.08-86.4 22.08-87.36s2.88-9.6-9.6-15.36c-12.48-3.84-16.32 2.88-18.24 2.88s-0.96 2.88-0.96 2.88 14.4-58.56-26.88-58.56c-24.96 0-61.44 27.84-79.68 52.8-11.52 5.76-34.56 19.2-59.52 31.68-9.6 5.76-19.2 11.52-28.8 15.36 0 0-0.96-0.96-0.96-2.88-49.92-52.8-142.08-90.24-138.24-163.2 0.96-26.88 9.6-95.04 176.64-176.64 136.32-68.16 246.72-48.96 264.96-6.72 26.88 59.52-58.56 169.92-200.64 185.28-54.72 5.76-82.56-15.36-89.28-22.08-6.72-8.64-8.64-8.64-11.52-6.72-3.84 2.88-0.96 9.6 0 14.4 3.84 11.52 22.08 30.72 51.84 40.32 26.88 8.64 89.28 12.48 166.08-16.32 86.4-33.6 153.6-125.76 133.44-203.52s-153.6-108.48-276.48-64.32c-73.92 26.88-153.6 67.2-210.24 120.96-68.16 64.32-77.76 118.08-73.92 142.08C81.92 543.68 196.16 596.48 240.32 636.8c-2.88 0.96-3.84 2.88-5.76 2.88-22.08 11.52-108.48 55.68-130.56 104.64-24.96 54.72 3.84 94.08 22.08 97.92 58.56 16.32 118.08-12.48 150.72-61.44 31.68-47.04 27.84-110.4 14.4-138.24v-0.96c5.76-2.88 12.48-6.72 18.24-9.6 11.52-6.72 22.08-12.48 31.68-18.24-5.76 15.36-9.6 33.6-11.52 59.52-2.88 30.72 9.6 71.04 26.88 86.4 6.72 6.72 15.36 6.72 21.12 6.72 19.2 0 27.84-15.36 37.44-34.56 11.52-24 22.08-49.92 22.08-49.92s-12.48 72 22.08 72c12.48 0 26.88-16.32 31.68-24.96 5.76-8.64 0 0 0.96-0.96 0.96-2.88 2.88-2.88 2.88-2.88 5.76-9.6 16.32-28.8 34.56-64.32 22.08-44.16 44.16-100.8 44.16-100.8s0.96 14.4 8.64 36.48c3.84 12.48 12.48 27.84 18.24 42.24-5.76 6.72-8.64 11.52-8.64 11.52-2.88 5.76-6.72 10.56-12.48 18.24-18.24 21.12-39.36 46.08-42.24 52.8-2.88 8.64-2.88 14.4 3.84 19.2 3.84 3.84 12.48 3.84 22.08 3.84 15.36-0.96 27.84-5.76 31.68-6.72 8.64-2.88 18.24-8.64 27.84-15.36 18.24-12.48 27.84-30.72 26.88-55.68 0-14.4-5.76-26.88-9.6-39.36 0.96-2.88 2.88-3.84 3.84-6.72 27.84-40.32 48.96-85.44 48.96-85.44s0.96 14.4 8.64 36.48c2.88 11.52 9.6 24 15.36 36.48-26.88 21.12-42.24 46.08-47.04 61.44-9.6 28.8-2.88 43.2 12.48 46.08 6.72 0.96 16.32-0.96 24-5.76 9.6-2.88 19.2-8.64 30.72-15.36 18.24-12.48 34.56-30.72 33.6-55.68 0-11.52-2.88-22.08-6.72-31.68 22.08-9.6 49.92-14.4 86.4-9.6 77.76 9.6 93.12 57.6 90.24 77.76-2.88 21.12-19.2 31.68-24.96 34.56s-6.72 3.84-6.72 6.72c0 3.84 2.88 2.88 8.64 2.88 6.72-0.96 40.32-16.32 42.24-54.72-6.72-48.96-52.8-100.8-131.52-100.8z m-600 201.6c-24.96 27.84-61.44 39.36-76.8 28.8-16.32-9.6-9.6-51.84 21.12-80.64 19.2-18.24 44.16-34.56 59.52-44.16 3.84-2.88 9.6-5.76 15.36-9.6 0.96 0 0.96-0.96 0.96-0.96 0.96-0.96 2.88-0.96 3.84-2.88 15.36 43.2 3.84 78.72-24 109.44zM416 637.76c-8.64 22.08-27.84 77.76-39.36 74.88-9.6-2.88-15.36-44.16-0.96-86.4 6.72-21.12 22.08-46.08 30.72-55.68 14.4-15.36 28.8-21.12 33.6-14.4 2.88 7.68-18.24 67.2-24 81.6z m154.56 73.92c-3.84 0.96-6.72 2.88-8.64 2.88s0.96-2.88 0.96-2.88 19.2-21.12 26.88-30.72c3.84-5.76 9.6-12.48 15.36-19.2v2.88c0.96 23.04-24 39.36-34.56 47.04zM689.6 684.8c-2.88-0.96-2.88-8.64 6.72-28.8 3.84-8.64 12.48-21.12 26.88-34.56 0.96 5.76 2.88 9.6 2.88 15.36 0 31.68-23.04 42.24-36.48 48z" fill="#FF83C4" p-id="1382"></path></svg>