<?xml version="1.0" standalone="no"?><!DOCTYPE svg PUBLIC "-//W3C//DTD SVG 1.1//EN" "http://www.w3.org/Graphics/SVG/1.1/DTD/svg11.dtd"><svg t="1745933942881" class="icon" viewBox="0 0 1024 1024" version="1.1" xmlns="http://www.w3.org/2000/svg" p-id="1588" xmlns:xlink="http://www.w3.org/1999/xlink" width="200" height="200"><path d="M656.40178584 62H189.97678584C176.99107168 62 166.46428584 72.52678584 166.46428584 92.95357168V945.92857168c0 5.54464248 10.52678584 16.07142832 23.5125 16.07142832h644.04642832c12.98571416 0 23.5125-10.52678584 23.5125-16.07142832V270.575c0-11.18571416-1.49464248-14.78571416-4.13035664-17.4375L666.39821416 66.13035752A14.20714248 14.20714248 0 0 0 656.40178584 62z" fill="#E9E9E0" p-id="1589"></path><path d="M664.67857168 64.42678584V254.85714248h190.43035664z" fill="#D9D7CA" p-id="1590"></path><path d="M834.02321416 962H189.97678584A23.5125 23.5125 0 0 1 166.46428584 938.4875V688.78571416h691.07142832v249.70178584c0 12.98571416-10.52678584 23.5125-23.5125 23.5125z" fill="#E57E25" p-id="1591"></path><path d="M406.87678584 869.39642832c0 5.85-1.20535752 11.53928584-3.63214336 17.03571416s-5.81785752 10.33392833-10.22142832 14.4964292-9.80357167 7.50535752-16.26428584 9.99642832-13.75714248 3.72857168-21.96964248 3.72857168c-3.51964248 0-7.13571416-0.19285752-10.88035752-0.5464292s-7.50535752-0.99642833-11.31428584-1.86428496-7.44107168-2.08928584-10.88035664-3.63214336-6.39642832-3.40714248-8.90357168-5.60892832l4.6125-18.9c2.05714248 1.17321416 4.64464248 2.31428584 7.79464336 3.40714248s6.39642832 2.12142833 9.77142832 3.06964336 6.73392832 1.71964248 10.10892832 2.31428584 6.50892832 0.88392832 9.45 0.88392832c8.93571416 0 15.78214248-2.08928584 20.53928584-6.26785752 4.75714248-4.17857167 7.13571416-10.36607167 7.13571416-18.5625 0-4.98214248-1.67142832-9.225-5.04642832-12.74464248s-7.58571416-6.70178584-12.63214336-9.5625-10.51071416-5.70535752-16.37678496-8.56607168-11.34642832-6.23571416-16.47321504-10.10892832-9.36964248-8.45357167-12.74464248-13.725-5.04642832-11.86071416-5.04642832-19.76785752c0-7.16785752 1.31785752-13.54821416 3.9535708-19.10892832s6.1875-10.30178584 10.65535752-14.175 9.675-6.84642832 15.60535752-8.90357168 12.19821416-3.06964248 18.7875-3.06964248c6.73392832 0 13.54821416 0.62678584 20.42678496 1.86428583s12.43928584 3.2625 16.69821504 6.04285665c-0.88392832 1.89642832-1.89642832 3.98571416-3.06964336 6.26785752l-3.29464248 6.36428583c-1.0125 1.97678584-1.89642832 3.63214248-2.63571416 4.95s-1.17321416 2.05714248-1.31785752 2.20178585c-0.88392832-0.43392833-1.86428584-1.0125-2.97321416-1.75178585s-2.66785752-1.4625-4.725-2.20178583-4.75714248-1.2375-8.13214336-1.54285752-7.69821416-0.225-12.96964248 0.225c-2.94107168 0.30535752-5.70535752 1.125-8.35714248 2.52321416s-4.98214248 3.10178584-7.03928584 5.15892919-3.66428584 4.35535752-4.8375 6.92678585-1.75178584 5.03035752-1.75178584 7.36071415c0 5.85 1.67142832 10.575 5.04642832 14.175s7.55357167 6.73392832 12.51964336 9.45 10.39821416 5.35178584 16.26428496 7.90714249 11.31428584 5.68928584 16.37678584 9.3375 9.25714248 8.24464248 12.63214336 13.725 5.11071416 12.55178584 5.11071416 21.19821416zM477.62321416 914.66964248L427.30357168 751.85h30.10178584l37.575 139.74107168 39.77678496-139.74107168h29.87678585l-52.73035665 162.81964248h-34.28035752zM715.59285752 830.29464248v62.61428585c-3.375 4.25892833-7.13571416 7.71428584-11.31428585 10.43035751s-8.56607167 4.95-13.17857167 6.70178584-9.36964248 3.00535752-14.2875 3.74464248-9.77142832 1.09285752-14.60892833 1.09285752c-9.675 0-18.5625-1.75178584-26.69464335-5.2714292s-15.23571416-8.71071416-21.31071416-15.60535664-10.84821416-15.525-14.2875-25.92321416-5.15892832-22.41964248-5.15892832-36.03214335 1.71964248-25.60178584 5.15892832-35.91964249 8.2125-18.93214248 14.2875-25.81071416 13.21071416-12.11785752 21.42321416-15.71785752 17.06785752-5.38392832 26.58214335-5.38392832c8.79107167 0 17.00357167 1.4625 24.60535665 4.3875s14.41607167 7.32857168 20.42678584 13.17857168l-18.24107168 16.26428496c-3.51964248-4.25892833-7.55357167-7.32857168-12.08571416-9.225s-9.225-2.86071416-14.0625-2.86071415c-5.41607168 0-10.575 1.0125-15.49285665 3.06964335s-9.30535752 5.52857168-13.17857167 10.43035665-6.92678584 11.23392832-9.1125 19.0125-3.375 17.27678584-3.51964248 28.55892919c0.14464248 10.99285752 1.28571416 20.50714248 3.40714248 28.55892832s5.04642832 14.64107168 8.79107167 19.76785664 7.9875 8.93571416 12.74464249 11.42678585 9.77142832 3.72857168 15.05892832 3.72857167c1.62321416 0 3.76071416-0.1125 6.47678584-0.3375s5.41607168-0.57857168 8.13214335-1.09285752 5.30357168-1.20535752 7.79464249-2.08928496 4.32321416-2.12142833 5.49642832-3.72857168v-39.98571416h-27.46607081v-18.01607168h53.61428585z" fill="#FFFFFF" p-id="1592"></path><path d="M793.25 415.57142832v-96.4285708h-96.42857168v32.14285664h-96.4285708v-64.28571416h-160.71428585v64.28571416h-96.42857167v-32.14285664h-96.42857168v96.4285708h96.42857168v-32.14285664h57.02142832c-73.38214248 42.36428584-121.30714248 121.95-121.30714248 208.9285708a16.07142832 16.07142832 0 1 0 32.14285664 0c0-84.31071416 51.89464248-160.69821416 128.5714292-192.77678496V447.71428584h160.71428584v-48.13392832c76.67678584 32.09464248 128.57142832 108.48214248 128.57142832 192.77678496a16.07142832 16.07142832 0 1 0 32.14285664 0c0-86.97857168-47.925-166.56428584-121.30714248-208.9285708H696.82142832v32.14285665h96.42857168z m-482.14285752-32.14285664h-32.14285664v-32.14285752h32.14285664v32.14285752z m257.14285752 32.14285664h-96.42857168v-96.4285708h96.42857168v96.4285708z m160.71428584-64.28571416h32.14285664v32.14285752h-32.14285664v-32.14285752z" fill="#C8BDB8" p-id="1593"></path></svg>