<?xml version="1.0" standalone="no"?><!DOCTYPE svg PUBLIC "-//W3C//DTD SVG 1.1//EN" "http://www.w3.org/Graphics/SVG/1.1/DTD/svg11.dtd"><svg t="1746069118746" class="icon" viewBox="0 0 1024 1024" version="1.1" xmlns="http://www.w3.org/2000/svg" p-id="1441" xmlns:xlink="http://www.w3.org/1999/xlink" width="200" height="200"><path d="M746.81 236.62333334a132.72 132.72 0 0 1 66.69 38.43 175.59 175.59 0 0 1 25.56 34.29c0.33 1.35-46.02 32.49-74.13 49.86-1.02 0.69-5.07-3.72-9.66-10.5a60.42 60.42 0 0 0-50.1-30c-32.31-2.22-53.13 14.7-52.98 42.99a39 39 0 0 0 4.59 19.98c7.11 14.7 20.31 23.52 61.77 41.49 76.32 32.85 109.08 54.51 129.3 85.29a154.74 154.74 0 0 1 12.48 129.99 142.92 142.92 0 0 1-117.96 84.45 327 327 0 0 1-81.24-0.84 195.93 195.93 0 0 1-108.48-56.52 188.34 188.34 0 0 1-27.78-41.13 79.65 79.65 0 0 1 9.81-6.24c4.74-2.7 22.68-13.02 39.6-22.83l30.72-18 6.42 9.36a143.13 143.13 0 0 0 40.5 38.76 99 99 0 0 0 103.74-5.25 46.35 46.35 0 0 0 6-59.22c-8.28-11.85-25.2-21.81-73.29-42.66a264 264 0 0 1-100.47-61.65 140.61 140.61 0 0 1-29.28-53.31 213.48 213.48 0 0 1-1.86-68.04 129.96 129.96 0 0 1 109.32-101.22 270 270 0 0 1 80.73 2.52z m-250.29 44.49l0.33 43.62h-138.9v394.44H260V324.82333334H121.1V281.98333334a419.58 419.58 0 0 1 1.2-43.98c0.51-0.69 84.96-1.02 187.35-0.84l186.33 0.51z" fill="#007ACC" p-id="1442"></path></svg>